<?xml version="1.0" encoding="utf-8"?>
<!-- Generator: Adobe Illustrator 24.2.0, SVG Export Plug-In . SVG Version: 6.00 Build 0)  -->
<svg version="1.1" id="Layer_1" xmlns="http://www.w3.org/2000/svg" xmlns:xlink="http://www.w3.org/1999/xlink" x="0px" y="0px"
	 viewBox="0 0 245 68.6" style="enable-background:new 0 0 245 68.6;" xml:space="preserve">
<style type="text/css">
	.st0{fill:#3FAE21;}
	.st1{fill:#535B61;}
	.st2{display:none;}
	.st3{display:inline;}
	.st4{clip-path:url(#SVGID_2_);}
	.st5{clip-path:url(#SVGID_4_);fill:#3DA115;}
	.st6{clip-path:url(#SVGID_4_);fill:#535B61;}
</style>
<path class="st0" d="M107.1,6.8C95,7.4,75.7,8.7,74.6,8.8c-2.4,0-4.7,0.8-6.7,2.2c-1.8,1.5-3.2,3.5-3.8,5.8
	C63.2,19.8,54,49.7,54,49.7l8.4,0.1l8-28c0.3-1.1,1-2.1,1.9-2.8c0.9-0.6,2-0.9,3.1-0.9l27.7-1c0.8-0.1,1.5,0.1,2,0.7
	c0.6,0.7,0.5,1.4,0.2,2.3L103,27c-0.1,0.6-0.4,1-0.9,1.4c-0.7,0.4-1.4,0.5-2.2,0.4l-27.3,0.4l-2.2,7.1c0,0,37-0.3,37.9-0.3
	c0.3-1,3.8-12.5,6.3-20.8C116,10.9,113.9,6.5,107.1,6.8z"/>
<path class="st0" d="M206.9,27.9L245,0l-20.7,0.9c0,0-10,8.6-22.9,19.2c-6.3-8.8-11.9-16.9-12.1-17.2l-16.1,0.9l21,22.2l-51.6,42.4
	l8.4,0.1l49.3-35.8l17.9,19.7l6.4,0.1L206.9,27.9z"/>
<path class="st0" d="M172.1,7.6c-1.5-2.1-3.7-3.9-6.5-3.7l-35.9,1.8c-5.7,0.3-9.2,4.8-10.7,9.9l-7.3,23.8c-2.3,6.9,3.3,11,7.8,11.1
	l34.7,0.3l10.4-8.2l-40-0.2c-3.3,0-4.5-2.3-3.7-5.1l5.4-17.8c0.3-1.1,0.9-2.1,1.9-2.8c0.9-0.6,2-0.8,3.1-0.9L162,15
	c0.6,0,1.3,0.3,1.7,0.8c0.4,0.5,0.6,1.1,0.4,1.7c0,0-2.4,8-2.5,8.3c-0.4,0.9-1.3,1.4-2.3,1.3c-0.9,0-31.3,0.4-31.3,0.4l-2.4,7.8
	l41.7-0.2l6.1-20.2C174.2,12.3,173.7,9.7,172.1,7.6"/>
<path class="st0" d="M58,11.7c-1.4-1.3-3.5-2-7-1.8c-13.3,0.8-33,1.7-34.7,1.8c-2.3,0-4.6,0.8-6.4,2.2C8.1,15.4,6,20,6,20l38.7-1.2
	c2.1-0.2,3,0.1,3.8,1c0.9,1,1,1.9,0.5,4l-4.2,14c-0.9,2.5-3.2,4.1-5.8,4.1l-28.2-0.4c-0.7,0-1.4-0.2-1.8-0.7c-0.5-0.6-0.6-1.3-0.4-2
	l0.7-2.3c0.2-1.2,1.4-2,2.6-1.8l0,0L42,34.5l2-6.5L3.5,28.8c-0.1,0.2-3.1,9.8-3.1,9.8C-0.4,41.1,0,43.9,1.6,46s4,3.3,6.7,3.2
	l30.6,0.4c3.2,0.1,6.3-0.9,8.8-2.8c2.4-1.7,4.2-4.2,5-7c0,0,4.1-12.7,6.6-21.8C60.2,15.1,59.4,12.9,58,11.7z"/>
<path class="st1" d="M7.8,57.7C7.3,57.3,6.7,57,6,57c-1.3,0-1.9,0.6-1.9,1.7c0.1,0.7,0.5,1.3,1,1.7l1.2,1.2c0.4,0.4,0.6,0.6,0.8,0.8
	c0.2,0.2,0.3,0.4,0.4,0.7c0.2,0.3,0.3,0.6,0.3,0.9C7.9,64.1,8,64.4,8,64.8c0.1,1.1-0.4,2.1-1.2,2.8c-0.8,0.7-1.9,1-3,1
	c-1,0-2-0.3-2.9-0.8l0.7-2.3c0.7,0.6,1.5,0.9,2.4,0.9c0.5,0,1-0.1,1.4-0.4S6,65.3,6,64.8c-0.1-0.7-0.5-1.3-1-1.7L3.7,62
	c-0.3-0.2-0.5-0.5-0.8-0.7c-0.2-0.2-0.3-0.4-0.4-0.7c-0.1-0.3-0.3-0.6-0.3-0.9C2,59.5,2,59.2,2,58.9c-0.1-1.1,0.3-2.1,1-2.9
	c0.7-0.7,1.7-1.1,2.7-1.1c0.5,0,1,0.1,1.4,0.2c0.4,0.1,0.8,0.2,1.2,0.3L7.8,57.7z"/>
<path class="st1" d="M14.9,61l2.8,7.5h-2.3l-2.1-5.7l-1.6,2.1l-0.6,3.6H9l2.1-13.3h2l-0.9,6l4.8-6h2.4L14.9,61z"/>
<path class="st1" d="M21.5,68.4h-2l2.1-13.3h2L21.5,68.4z"/>
<path class="st1" d="M35.7,61c0.5,0.3,0.8,0.7,1,1.1c0.8,1.8,0.4,3.9-1,5.2c-1.3,0.9-2.9,1.3-4.5,1.2c-0.7,0-1.5,0-2.6-0.1l2.1-13.3
	c0.8-0.1,1.5-0.2,2.3-0.2c2.8,0,4.3,1.1,4.3,3.3c0,0.6-0.2,1.1-0.5,1.6C36.5,60.3,36.1,60.7,35.7,61z M31.7,61.9L31,66.5
	c0.2,0,0.5,0,0.7,0c0.9,0,1.7-0.2,2.4-0.6c0.6-0.4,0.9-1,0.9-1.7c0-1.5-0.8-2.2-2.5-2.2C32.2,61.9,31.9,61.9,31.7,61.9L31.7,61.9z
	 M32.4,56.9l-0.5,3.2h0.8c0.6,0,1.3-0.2,1.8-0.5c0.5-0.4,0.7-1,0.7-1.6c0-0.8-0.6-1.2-1.8-1.2C33.2,56.9,32.8,56.9,32.4,56.9
	L32.4,56.9z"/>
<path class="st1" d="M38.4,63.5c-0.1-2.1,0.5-4.3,1.6-6.1c0.9-1.6,2.5-2.5,4.3-2.5c1.2-0.1,2.3,0.4,3.2,1.3c0.8,1,1.2,2.3,1.1,3.7
	c0.1,2.3-0.5,4.5-1.7,6.4c-1,1.6-2.8,2.5-4.7,2.4c-1.1,0-2.2-0.5-2.9-1.4C38.7,66.1,38.3,64.8,38.4,63.5z M40.5,63.2
	c0,0.8,0.1,1.7,0.5,2.4c0.3,0.6,0.9,0.9,1.5,0.9c1.3,0,2.4-0.8,2.9-1.9c0.8-1.4,1.1-3,1.1-4.6c0-2-0.8-3-2.3-3
	c-1.2,0.1-2.3,0.9-2.7,2C40.8,60.3,40.5,61.7,40.5,63.2L40.5,63.2z"/>
<path class="st1" d="M49.6,63.5c-0.1-2.1,0.5-4.3,1.7-6.1c0.9-1.6,2.5-2.5,4.3-2.5c1.2-0.1,2.3,0.4,3.2,1.3c0.8,1,1.2,2.3,1.1,3.7
	c0.1,2.3-0.5,4.5-1.7,6.4c-1,1.6-2.8,2.5-4.7,2.4c-1.1,0-2.2-0.5-2.9-1.4C49.9,66.1,49.5,64.8,49.6,63.5z M51.7,63.2
	c0,0.8,0.1,1.7,0.5,2.4c0.3,0.6,0.9,0.9,1.5,0.9c1.3,0,2.4-0.8,2.9-1.9c0.8-1.4,1.1-3,1.1-4.6c0-2-0.8-3-2.3-3
	c-1.2,0.1-2.3,0.9-2.7,2C52.1,60.2,51.7,61.7,51.7,63.2L51.7,63.2z"/>
<path class="st1" d="M70.9,57.2h-3.6l-1.8,11.2h-2.1l1.8-11.2h-3.6l0.3-2.1h9.3L70.9,57.2z"/>
<path class="st1" d="M83.2,57.7C82.7,57.3,82,57,81.3,57c-1.3,0-1.9,0.6-1.9,1.7c0.1,0.7,0.5,1.3,1,1.7l1.2,1.2
	c0.4,0.4,0.6,0.6,0.8,0.8c0.2,0.2,0.3,0.4,0.4,0.7c0.2,0.3,0.3,0.6,0.3,0.9c0.1,0.3,0.1,0.6,0.1,0.9c0.1,1.1-0.4,2.1-1.2,2.8
	c-0.8,0.7-1.9,1-3,1c-1,0-2-0.3-2.9-0.8l0.7-2.3c0.7,0.6,1.5,0.9,2.4,0.9c0.5,0,1-0.1,1.4-0.4s0.6-0.7,0.6-1.2
	c-0.1-0.7-0.5-1.3-1-1.7L79,62.1c-0.3-0.2-0.5-0.5-0.8-0.7c-0.2-0.2-0.3-0.4-0.4-0.7s-0.3-0.6-0.3-0.9c-0.1-0.3-0.1-0.6-0.1-0.9
	c-0.1-1.1,0.3-2.1,1-2.9c0.7-0.7,1.7-1.1,2.7-1.1c0.5,0,1,0.1,1.4,0.2c0.4,0.1,0.8,0.2,1.2,0.3L83.2,57.7z"/>
<path class="st1" d="M90.5,62.5l-0.9,5.9h-2l0.9-6l-2.7-7.3h2.1l1.8,5.3l3.4-5.2h2.3L90.5,62.5z"/>
<path class="st1" d="M102.1,57.7c-0.5-0.5-1.2-0.7-1.8-0.8c-1.3,0-1.9,0.6-1.9,1.7c0.1,0.7,0.5,1.3,1,1.7l1.2,1.2
	c0.4,0.4,0.6,0.6,0.8,0.8c0.2,0.2,0.3,0.4,0.4,0.7c0.2,0.3,0.3,0.6,0.3,0.9c0.1,0.3,0.1,0.6,0.1,0.9c0.1,1.1-0.4,2.1-1.2,2.8
	c-0.8,0.7-1.9,1-3,1c-1,0-2-0.3-2.9-0.8l0.7-2.3c0.7,0.6,1.5,0.9,2.4,0.9c0.5,0,1-0.1,1.4-0.4s0.6-0.7,0.6-1.2
	c-0.1-0.7-0.5-1.3-1-1.7L98,62c-0.3-0.2-0.5-0.5-0.8-0.8c-0.2-0.2-0.3-0.4-0.4-0.7s-0.3-0.6-0.3-0.9c-0.1-0.3-0.1-0.6-0.1-0.9
	c-0.1-1.1,0.3-2.1,1-2.9c0.7-0.7,1.7-1.1,2.7-1.1c0.5,0,1,0.1,1.4,0.2c0.4,0.1,0.8,0.2,1.2,0.3L102.1,57.7z"/>
<path class="st1" d="M113.7,57.2h-3.6l-1.8,11.2h-2.1l1.8-11.2h-3.6l0.3-2.1h9.3L113.7,57.2z"/>
<path class="st1" d="M123.2,57.2H118l-0.5,3.1h3.8l-0.3,2h-3.8l-0.7,4.1h5.2l-0.3,2.1h-7.3l2.1-13.3h7.4L123.2,57.2z"/>
<path class="st1" d="M132.9,68.4l-0.1-7.2l-3.5,7.4h-0.7l-1.1-7.5l-2.4,7.3h-2l4.2-13.3h1.1l1.2,8.4l3.8-8.4h1.2l0.3,13.3H132.9z"/>
<g id="ART">
</g>
<g class="st2">
	<g class="st3">
		<defs>
			<rect id="SVGID_1_" x="-8" y="-3.5" width="287" height="81.5"/>
		</defs>
		<clipPath id="SVGID_2_">
			<use xlink:href="#SVGID_1_"  style="overflow:visible;"/>
		</clipPath>
		<g class="st4">
			<defs>
				<rect id="SVGID_3_" x="-8" y="-3.5" width="287" height="81.5"/>
			</defs>
			<clipPath id="SVGID_4_">
				<use xlink:href="#SVGID_3_"  style="overflow:visible;"/>
			</clipPath>
			<path class="st5" d="M118.1,12.8c-13,0.5-33.5,1.7-34.7,1.7c-2.9,0.1-5.2,0.7-7.1,2c-2.3,1.4-3.3,3.3-4,5.1
				c-1,2.5-10.8,28.6-10.8,28.6l9,0.1L79,25.9c0.4-1.1,1.1-1.9,2-2.5c0.9-0.5,2.1-0.7,3.3-0.8l29.6-0.9c1.1-0.1,1.7,0.2,2.2,0.6
				c0.7,0.6,0.5,1.2,0.2,2l-2.4,6c-0.2,0.6-0.5,1-1,1.2c-0.6,0.3-1.3,0.3-2.4,0.3l-29.1,0.4l-2.4,6.2c0,0,39.5-0.2,40.5-0.2
				c0.3-0.9,4-10.9,6.8-18.2C127.7,16.4,125.4,12.5,118.1,12.8"/>
			<path class="st5" d="M224.8,31.2l40.7-24.3l-22.2,0.8c0,0-10.7,7.5-24.5,16.8c-6.7-7.7-12.8-14.8-12.9-15l-17.2,0.8l22.4,19.4
				c-24.8,16.7-55,37-55.1,37.1c0,0,6.3,0.1,9,0.1l52.7-31.3l19.2,17.2l6.8,0.1C243.7,52.7,231.9,39.2,224.8,31.2"/>
			<path class="st5" d="M187.6,13.5c-1.6-1.8-4-3.4-6.9-3.2c0,0-31.8,1.3-38.3,1.5c-6.1,0.3-9.8,4.2-11.4,8.6l-7.8,20.8
				c-2.4,6,3.5,9.6,8.3,9.7l37.1,0.3l11.1-7.1L136.8,44c-3.5,0-4.8-2-3.9-4.5l5.7-15.6c0.4-1.1,1-1.9,2-2.5c0.8-0.4,2-0.7,3.3-0.7
				l32.9-0.8c0.7,0,1.3,0.2,1.8,0.7c0.5,0.5,0.6,1,0.4,1.5c0,0-2.6,7-2.7,7.2c-0.4,0.8-1.2,1.1-2.4,1.1c-1,0-33.5,0.4-33.5,0.4
				l-2.6,6.8l44.6-0.2l6.5-17.7C189.7,17.4,189.3,15.3,187.6,13.5"/>
			<path class="st5" d="M65.7,17c-1.5-1.2-3.8-1.7-7.5-1.6c-14.2,0.7-35.3,1.5-37,1.5c-3.4,0.1-5.4,1-6.8,2c-2,1.4-4.2,5.3-4.2,5.3
				l41.4-1c2.3-0.1,3.3,0.1,4.1,0.9c1,0.9,1,1.6,0.5,3.5l-4.5,12.2c-0.7,2-3.5,3.7-6.2,3.6l-30.2-0.3c-0.7,0-1.4-0.2-1.9-0.6
				c-0.5-0.5-0.6-1.2-0.4-1.7l0.8-2c0.5-1.3,1.3-1.6,2.7-1.6L48.6,37l2.1-5.7c0,0-43.2,0.7-43.4,0.7c-0.1,0.2-3.3,8.6-3.3,8.6
				C3.2,43,3.7,45.2,5.4,47c1.7,1.9,4.1,2.8,7.1,2.8l32.7,0.3c3,0,6.4-0.6,9.4-2.4c3-1.8,4.6-4.1,5.4-6.1c0,0,4.3-11.1,7.1-19
				C68,20,67.1,18.1,65.7,17"/>
			<path class="st6" d="M12.1,57.3c-0.6-0.4-1.3-0.7-2-0.7c-1.3,0-2,0.5-2,1.4c0,0.4,0.4,0.9,1.1,1.5l1.3,1c0.4,0.3,0.7,0.5,0.8,0.7
				c0.1,0.1,0.3,0.3,0.5,0.6c0.2,0.3,0.3,0.5,0.4,0.8c0.1,0.3,0.1,0.5,0.1,0.8c0,1.1-0.4,1.9-1.3,2.5c-0.8,0.6-1.9,0.9-3.3,0.9
				c-1.1,0-2.1-0.2-3.1-0.7l0.7-2c0.7,0.5,1.6,0.8,2.6,0.8c0.6,0,1.1-0.1,1.5-0.4c0.4-0.2,0.6-0.6,0.6-1c0-0.4-0.4-0.9-1.1-1.5
				l-1.3-1c-0.4-0.3-0.7-0.5-0.8-0.7c-0.1-0.1-0.3-0.3-0.4-0.6c-0.2-0.2-0.3-0.5-0.4-0.8c-0.1-0.3-0.1-0.5-0.1-0.8
				c0-1.1,0.4-1.9,1.1-2.5c0.7-0.6,1.7-0.9,2.9-0.9c0.4,0,0.9,0,1.5,0.1c0.6,0.1,1.1,0.2,1.3,0.3L12.1,57.3z"/>
			<polygon class="st6" points="19.6,60.1 22.6,66.6 20.2,66.6 17.9,61.7 16.2,63.5 15.5,66.6 13.4,66.6 15.6,55 17.8,55 16.8,60.3 
				21.8,55 24.4,55 			"/>
			<polygon class="st6" points="26.6,66.6 24.5,66.6 26.7,55 28.9,55 			"/>
			<path class="st6" d="M41.8,60.1c0.4,0.2,0.8,0.5,1,1c0.3,0.5,0.4,1,0.4,1.6c0,1.3-0.5,2.3-1.5,3c-1,0.7-2.6,1-4.8,1
				c-0.7,0-1.6,0-2.7-0.1L36.5,55c0.9-0.1,1.8-0.2,2.5-0.2c3,0,4.6,1,4.6,2.9c0,0.5-0.2,1-0.5,1.4C42.7,59.6,42.3,59.9,41.8,60.1
				 M37.6,61l-0.8,4c0.3,0,0.5,0,0.7,0c1.1,0,2-0.2,2.6-0.5c0.6-0.4,1-0.9,1-1.6c0-1.3-0.9-1.9-2.7-1.9C38.1,60.9,37.8,60.9,37.6,61
				 M38.4,56.6l-0.5,2.8c0.3,0,0.6,0,0.9,0c0.8,0,1.4-0.2,1.9-0.5c0.5-0.3,0.7-0.8,0.7-1.4c0-0.7-0.6-1-1.9-1
				C39.2,56.6,38.8,56.6,38.4,56.6"/>
			<path class="st6" d="M44.7,62.3c0-2.1,0.6-3.8,1.8-5.3c1.2-1.5,2.7-2.2,4.6-2.2c1.5,0,2.6,0.4,3.4,1.1c0.8,0.7,1.2,1.8,1.2,3.2
				c0,2.3-0.6,4.1-1.8,5.6c-1.2,1.4-2.9,2.1-5,2.1c-1.3,0-2.3-0.4-3.1-1.2C45.1,64.8,44.7,63.7,44.7,62.3 M47,62.1
				c0,0.9,0.2,1.6,0.6,2.1c0.4,0.5,0.9,0.8,1.6,0.8c1.3,0,2.4-0.6,3.1-1.7c0.8-1.1,1.2-2.5,1.2-4.1c0-1.8-0.8-2.7-2.5-2.7
				c-1.2,0-2.1,0.6-2.9,1.7C47.3,59.5,47,60.8,47,62.1"/>
			<path class="st6" d="M56.7,62.3c0-2.1,0.6-3.8,1.8-5.3c1.2-1.5,2.7-2.2,4.6-2.2c1.5,0,2.6,0.4,3.4,1.1c0.8,0.7,1.2,1.8,1.2,3.2
				c0,2.3-0.6,4.1-1.8,5.6c-1.2,1.4-2.9,2.1-5,2.1c-1.3,0-2.3-0.4-3.1-1.2C57.1,64.8,56.7,63.7,56.7,62.3 M59,62.1
				c0,0.9,0.2,1.6,0.6,2.1c0.4,0.5,0.9,0.8,1.6,0.8c1.3,0,2.4-0.6,3.1-1.7c0.8-1.1,1.2-2.5,1.2-4.1c0-1.8-0.8-2.7-2.5-2.7
				c-1.2,0-2.1,0.6-2.9,1.7C59.3,59.5,59,60.8,59,62.1"/>
			<polygon class="st6" points="79.5,56.8 75.6,56.8 73.7,66.6 71.6,66.6 73.4,56.8 69.6,56.8 69.9,55 79.9,55 			"/>
			<path class="st6" d="M92.6,57.3c-0.6-0.4-1.3-0.7-2-0.7c-1.3,0-2,0.5-2,1.4c0,0.4,0.4,0.9,1.1,1.5l1.3,1c0.4,0.3,0.7,0.5,0.8,0.7
				c0.2,0.1,0.3,0.3,0.5,0.6c0.2,0.3,0.3,0.5,0.4,0.8c0.1,0.3,0.1,0.5,0.1,0.8c0,1.1-0.4,1.9-1.3,2.5c-0.8,0.6-1.9,0.9-3.3,0.9
				c-1.1,0-2.1-0.2-3.1-0.7l0.7-2c0.7,0.5,1.6,0.8,2.6,0.8c0.6,0,1.1-0.1,1.5-0.4c0.4-0.2,0.6-0.6,0.6-1c0-0.4-0.4-0.9-1.1-1.5
				l-1.3-1c-0.4-0.3-0.7-0.5-0.8-0.7c-0.1-0.1-0.3-0.3-0.4-0.6c-0.2-0.2-0.3-0.5-0.4-0.8c-0.1-0.3-0.1-0.5-0.1-0.8
				c0-1.1,0.4-1.9,1.1-2.5c0.7-0.6,1.7-0.9,2.9-0.9c0.4,0,0.9,0,1.5,0.1s1.1,0.2,1.3,0.3L92.6,57.3z"/>
			<polygon class="st6" points="100.4,61.5 99.4,66.6 97.2,66.6 98.3,61.4 95.4,55 97.6,55 99.6,59.5 103.3,55 105.8,55 			"/>
			<path class="st6" d="M112.8,57.3c-0.6-0.4-1.3-0.7-2-0.7c-1.3,0-2,0.5-2,1.4c0,0.4,0.4,0.9,1.1,1.5l1.3,1
				c0.4,0.3,0.7,0.5,0.8,0.7c0.2,0.1,0.3,0.3,0.5,0.6c0.2,0.3,0.3,0.5,0.4,0.8c0.1,0.3,0.1,0.5,0.1,0.8c0,1.1-0.4,1.9-1.3,2.5
				c-0.8,0.6-1.9,0.9-3.3,0.9c-1.1,0-2.1-0.2-3.1-0.7l0.7-2c0.7,0.5,1.6,0.8,2.6,0.8c0.6,0,1.1-0.1,1.5-0.4c0.4-0.2,0.6-0.6,0.6-1
				c0-0.4-0.4-0.9-1.1-1.5l-1.3-1c-0.4-0.3-0.7-0.5-0.8-0.7c-0.1-0.1-0.3-0.3-0.4-0.6c-0.2-0.2-0.3-0.5-0.4-0.8
				c-0.1-0.3-0.1-0.5-0.1-0.8c0-1.1,0.4-1.9,1.1-2.5c0.7-0.6,1.7-0.9,2.9-0.9c0.4,0,0.9,0,1.5,0.1c0.6,0.1,1.1,0.2,1.3,0.3
				L112.8,57.3z"/>
			<polygon class="st6" points="125.2,56.8 121.3,56.8 119.4,66.6 117.2,66.6 119.1,56.8 115.2,56.8 115.6,55 125.5,55 			"/>
			<polygon class="st6" points="135.4,56.8 129.8,56.8 129.3,59.5 133.3,59.5 133,61.2 128.9,61.2 128.2,64.8 133.8,64.8 
				133.4,66.6 125.6,66.6 127.9,55 135.8,55 			"/>
			<polygon class="st6" points="145.8,66.6 145.6,60.3 141.9,66.8 141.2,66.8 139.9,60.3 137.4,66.6 135.3,66.6 139.8,55 141,55 
				142.3,62.4 146.3,55 147.6,55 147.9,66.6 			"/>
		</g>
	</g>
</g>
</svg>
